# xmcd CD Database Entry
#
# Track frame offsets:
# 150
# 11297
# 24887
# 39795
# 51547
# 68800
# 84310
# 102792
# 119060
# 140405
# 151882
#
# Disc length: 3420 seconds
#
# Revision: 2
# Processed by: cddbd v1.4b41PL1 Copyright (c) Steve Scherf et al.
# Submitted via: tcd 2.0b
#
DISCID=800d5a0b
DTITLE=Valiant Swart - Mystic Boer
DYEAR=1900
DGENRE=
TTITLE0=Ek en die valk
TTITLE1=Die son se song
TTITLE2=dis 'n hondelewe
TTITLE3=My kroon
TTITLE4=Buitenkant
TTITLE5=In die Transvaal
TTITLE6=Ware liefde
TTITLE7=Slangdans
TTITLE8=Weeskind van die Weste
TTITLE9=Mystic boer
TTITLE10=Huh?
EXTD=
EXTT0=
EXTT1=
EXTT2=
EXTT3=
EXTT4=
EXTT5=
EXTT6=
EXTT7=
EXTT8=
EXTT9=
EXTT10=
PLAYORDER=
